<svg xmlns="http://www.w3.org/2000/svg" width="50" height="25" viewBox="0 0 50 25">
    <g fill="#D31772" fill-rule="evenodd">
        <path d="M34.61 20.57H19.027a.682.682 0 0 1 0-1.363H34.61a.682.682 0 0 1 0 1.363z"/>
        <path fill-rule="nonzero" d="M15.322 24.277a4.394 4.394 0 0 1-4.39-4.39 4.393 4.393 0 0 1 4.39-4.39 4.394 4.394 0 0 1 4.39 4.39c0 2.422-1.97 4.39-4.39 4.39zm0-6.455c-1.14 0-2.067.927-2.067 2.067 0 1.14.927 2.067 2.067 2.067 1.139 0 2.066-.927 2.066-2.067a2.07 2.07 0 0 0-2.066-2.067zM38.318 24.277a4.394 4.394 0 0 1-4.39-4.39 4.393 4.393 0 0 1 4.39-4.39 4.393 4.393 0 0 1 4.39 4.39c0 2.422-1.97 4.39-4.39 4.39zm0-6.455a2.07 2.07 0 0 0-2.067 2.067 2.07 2.07 0 0 0 2.067 2.067 2.07 2.07 0 0 0 2.067-2.067 2.07 2.07 0 0 0-2.067-2.067z"/>
        <path stroke="#D31772" d="M34.113 20.421H19.197c-.36 0-.652-.305-.652-.681 0-.376.292-.681.652-.681h14.916c.36 0 .653.305.653.681 0 .376-.293.681-.653.681z"/>
        <path stroke="#D31772" d="M45.186 20.421h-3.3a.69.69 0 0 1-.686-.694.69.69 0 0 1 .686-.694h3.3a1.71 1.71 0 0 0 1.694-1.467l.732-4.739a1.225 1.225 0 0 0-1.054-1.408l-9.147-1.128a.688.688 0 0 1-.359-.157l-8.268-7.027a3.017 3.017 0 0 0-1.953-.72H13.896a1.85 1.85 0 0 0-1.57.87L8.46 9.373a.674.674 0 0 1-.379.29l-4.67 1.424a1.48 1.48 0 0 0-1.018 1.64l.654 4.234a2.417 2.417 0 0 0 2.39 2.07h5.808a.69.69 0 0 1 .687.693.69.69 0 0 1-.687.695h-5.81c-1.882 0-3.46-1.364-3.748-3.244l-.654-4.234c-.215-1.405.635-2.773 1.98-3.183l4.427-1.35 3.73-5.901A3.215 3.215 0 0 1 13.896 1h12.938c1.035 0 2.042.37 2.834 1.044L37.78 8.94l8.946 1.102a2.555 2.555 0 0 1 1.75 1.018c.427.57.601 1.274.493 1.982l-.732 4.74c-.235 1.53-1.52 2.64-3.05 2.64z"/>
        <path stroke="#D31772" d="M30.103 11.222H14.27a.686.686 0 0 1-.69-.682c0-.376.309-.681.69-.681h15.833c.38 0 .69.305.69.681 0 .377-.31.682-.69.682z"/>
    </g>
</svg>
