<svg xmlns="http://www.w3.org/2000/svg" width="32" height="24" viewBox="0 0 32 24">
    <defs>
        <path id="a" d="M0 .007h31.007V23.7H0z"/>
    </defs>
    <g fill="none" fill-rule="evenodd">
        <rect width="30.08" height="21.718" x=".502" y=".375" fill="#FFF" fill-rule="nonzero" stroke="#00B0AC" stroke-width=".75" rx="6.75"/>
        <path fill="#00B0AC" d="M3.1 2.242h24.806c.57 0 1.034.501 1.034 1.117v1.118H2.067V3.359c0-.616.464-1.117 1.034-1.117zm24.806 19.223H3.101c-.57 0-1.034-.502-1.034-1.118v-9.164H28.94v9.164c0 .616-.464 1.118-1.034 1.118zM2.067 8.947H28.94V6.712H2.067v2.235zM3.101 23.7h24.805c1.71 0 3.101-1.504 3.101-3.353V3.36c0-1.848-1.39-3.352-3.1-3.352H3.1C1.39.007 0 1.51 0 3.359v16.988C0 22.196 1.39 23.7 3.1 23.7z"/>
        <path fill="#00B0AC" d="M25.8 17.1H21.7c-.565 0-1.024.47-1.024 1.05 0 .58.459 1.05 1.024 1.05H25.8c.566 0 1.024-.47 1.024-1.05 0-.58-.458-1.05-1.024-1.05"/>
    </g>
</svg>
