<svg xmlns="http://www.w3.org/2000/svg" width="31" height="24" viewBox="0 0 31 24">
    <defs>
        <path id="a" d="M0 .007h30.706V23.7H0z"/>
    </defs>
    <g fill="none" fill-rule="evenodd">
        <path fill="#000" d="M17.294 17.1c-.535 0-.968.47-.968 1.05 0 .58.433 1.05.968 1.05.535 0 .968-.47.968-1.05 0-.58-.433-1.05-.968-1.05"/>
        <rect width="30.53" height="22.468" x=".126" fill="#FFF" fill-rule="nonzero" rx="6.75"/>
        <path fill="#000" d="M3.07 2.242h24.565c.564 0 1.024.501 1.024 1.117v1.118H2.047V3.359c0-.616.46-1.117 1.024-1.117zm24.565 19.223H3.071c-.565 0-1.024-.502-1.024-1.118v-9.164H28.66v9.164c0 .616-.46 1.118-1.024 1.118zM2.047 8.947H28.66V6.712H2.047v2.235zM3.071 23.7h24.564c1.693 0 3.07-1.504 3.07-3.353V3.36c0-1.848-1.377-3.352-3.07-3.352H3.071C1.377.007 0 1.51 0 3.359v16.988C0 22.196 1.377 23.7 3.07 23.7z"/>
        <path fill="#000" d="M25.549 17.1H21.49c-.56 0-1.015.47-1.015 1.05 0 .58.454 1.05 1.015 1.05h4.058c.56 0 1.015-.47 1.015-1.05 0-.58-.455-1.05-1.015-1.05"/>
    </g>
</svg>
